<?xml version="1.0" standalone="no"?>
<!DOCTYPE svg PUBLIC "-//W3C//DTD SVG 20010904//EN"
 "http://www.w3.org/TR/2001/REC-SVG-20010904/DTD/svg10.dtd">
<svg version="1.0" xmlns="http://www.w3.org/2000/svg"
 width="593.000000pt" height="593.000000pt" viewBox="0 0 593.000000 593.000000"
 preserveAspectRatio="xMidYMid meet">
<metadata>
Created by potrace 1.14, written by Peter Selinger 2001-2017
</metadata>
<g transform="translate(0.000000,593.000000) scale(0.100000,-0.100000)"
fill="#000000" stroke="none">
<path d="M2768 5925 c-2 -1 -40 -5 -86 -9 -46 -3 -87 -8 -90 -10 -4 -2 -35 -7
-69 -10 -35 -4 -68 -8 -75 -11 -7 -2 -29 -6 -48 -9 -38 -6 -142 -30 -205 -48
-22 -6 -45 -13 -52 -14 -50 -9 -317 -107 -392 -143 -149 -72 -232 -116 -349
-186 -33 -20 -134 -86 -145 -96 -7 -5 -48 -36 -92 -69 -239 -180 -468 -421
-647 -680 -199 -290 -371 -675 -433 -970 -2 -8 -10 -46 -19 -85 -17 -74 -22
-106 -32 -170 -3 -22 -8 -51 -10 -65 -12 -75 -19 -217 -18 -390 1 -258 10
-353 55 -578 54 -272 113 -444 249 -727 265 -550 761 -1049 1314 -1322 72 -35
139 -68 148 -73 111 -60 520 -183 678 -205 25 -3 52 -8 60 -10 17 -4 94 -13
215 -25 77 -7 469 -5 530 3 17 3 55 8 85 11 466 57 963 251 1335 519 219 158
474 397 590 552 17 22 35 45 41 50 6 6 22 26 34 45 13 19 27 37 30 40 27 21
160 240 235 385 150 291 243 587 299 955 15 94 21 213 20 395 0 222 -7 322
-34 475 -5 30 -12 71 -15 90 -8 51 -72 292 -96 364 -61 180 -155 388 -247 546
-45 79 -159 251 -193 294 -106 133 -193 232 -283 321 -262 259 -552 459 -881
607 -151 68 -382 147 -505 173 -8 2 -35 8 -60 14 -25 5 -61 12 -80 16 -19 3
-46 8 -60 10 -53 11 -67 13 -130 20 -36 4 -76 10 -90 12 -29 5 -477 12 -482 8z"/>
</g>
</svg>
